# xmcd
#
# Track frame offsets:
#	150
#	9342
#	24039
#	42951
#	53423
#	64590
#	75310
#	83931
#	95478
#	107384
#
# Disc length: 1570
#
# Revision: 2
# Processed by: cddbd v1.5.1PL0 Copyright (c) Steve Scherf et al.
# Submitted via: audiograbber 1.83.01
# Normalized: r1:TSWAP
#
DISCID=5c06200a
DTITLE=Various Artist - Country Christmas - A Postcard Christmas
DYEAR=2001
DGENRE=Country
TTITLE0=Rockin' Around The Christmas Tree - Donna Fargo
TTITLE1=Jeannie C. Riley - Silver Bells
TTITLE2=Eddie Raven - Have Yourself A Merry Little Christmas
TTITLE3=Gene Autry - Sleigh Bells
TTITLE4=Skeeter Davis - Rudolph The Red Nosed Reindeer
TTITLE5=Kitty Wells - Away In A Manger
TTITLE6=Gene Autry - Frosty The Snowman
TTITLE7=Skeeter Davis - Santa Claus Is Coming To Town
TTITLE8=Donna Fargo - Jingle Bells
TTITLE9=Lacy J Dalton - Winter Wonderland
EXTD=LIF 160025
EXTT0=
EXTT1=
EXTT2=
EXTT3=
EXTT4=
EXTT5=
EXTT6=
EXTT7=
EXTT8=
EXTT9=
PLAYORDER=
